{
   "accessors" : [
      {
         "bufferView" : 2,
         "byteOffset" : 0,
         "componentType" : 5126,
         "count" : 26,
         "max" : [ 1, 1, 1, 1 ],
         "min" : [ 1, 1, 1, 1 ],
         "name" : "accessor_color_m0-PolyGem25_-27586",
         "type" : "VEC4"
      },
      {
         "bufferView" : 2,
         "byteOffset" : 416,
         "componentType" : 5126,
         "count" : 2112,
         "max" : [ 1, 0.835527777671814, 0.3392233550548553, 1 ],
         "min" : [ 0.1904628723859787, 0.09387587010860443, 0, 1 ],
         "name" : "accessor_color_m1-PolyPaper16_-27584",
         "type" : "VEC4"
      },
      {
         "bufferView" : 0,
         "byteOffset" : 0,
         "componentType" : 5123,
         "count" : 36,
         "max" : [ 25 ],
         "min" : [ 0 ],
         "name" : "accessor_indices_0_m0-PolyGem25_-27586",
         "type" : "SCALAR"
      },
      {
         "bufferView" : 0,
         "byteOffset" : 72,
         "componentType" : 5123,
         "count" : 2964,
         "max" : [ 2111 ],
         "min" : [ 0 ],
         "name" : "accessor_indices_0_m1-PolyPaper16_-27584",
         "type" : "SCALAR"
      },
      {
         "bufferView" : 1,
         "byteOffset" : 312,
         "componentType" : 5126,
         "count" : 26,
         "max" : [ 0.9457883, -0.1905969, 0.9478193 ],
         "min" : [ -0.9444852, -0.2124247, -0.946103 ],
         "name" : "accessor_normal_m0-PolyGem25_-27586",
         "type" : "VEC3"
      },
      {
         "bufferView" : 1,
         "byteOffset" : 25968,
         "componentType" : 5126,
         "count" : 2112,
         "max" : [ 0.9981826, 1, 0.9970721 ],
         "min" : [ -0.9981826, -1, -0.9970722 ],
         "name" : "accessor_normal_m1-PolyPaper16_-27584",
         "type" : "VEC3"
      },
      {
         "bufferView" : 1,
         "byteOffset" : 0,
         "componentType" : 5126,
         "count" : 26,
         "max" : [ -0.2964067, 0.75726, 0.5916359 ],
         "min" : [ -0.6268758, 0.4831048, 0.261616 ],
         "name" : "accessor_position_m0-PolyGem25_-27586",
         "type" : "VEC3"
      },
      {
         "bufferView" : 1,
         "byteOffset" : 624,
         "componentType" : 5126,
         "count" : 2112,
         "max" : [ -0.2700295, 1.040997, 0.6199993 ],
         "min" : [ -0.6566833, 0.290022, 0.2333455 ],
         "name" : "accessor_position_m1-PolyPaper16_-27584",
         "type" : "VEC3"
      }
   ],
   "asset" : {
      "copyright" : "Unknown",
      "extras" : {
         "GOOGLE_processor_version" : 294144208
      },
      "generator" : "glTF 1-to-2 Upgrader for Google Blocks",
      "version" : "2.0"
   },
   "bufferViews" : [
      {
         "buffer" : 0,
         "byteLength" : 6000,
         "byteOffset" : 0,
         "name" : "ushortBufferView",
         "target" : 34963
      },
      {
         "buffer" : 0,
         "byteLength" : 51312,
         "byteOffset" : 6000,
         "byteStride" : 12,
         "name" : "vec3BufferView",
         "target" : 34962
      },
      {
         "buffer" : 0,
         "byteLength" : 34208,
         "byteOffset" : 57312,
         "byteStride" : 16,
         "name" : "vec4BufferView",
         "target" : 34962
      }
   ],
   "buffers" : [
      {
         "byteLength" : 91520,
         "name" : "model",
         "uri" : "model.bin"
      }
   ],
   "cameras" : [
      {
         "perspective" : {
            "yfov" : 0.7853981633974483,
            "znear" : 0.1000000014901161
         },
         "type" : "perspective"
      }
   ],
   "extensions" : {
      "KHR_lights_punctual" : {
         "lights" : [
            {
               "color" : [ 1, 0.9333333333333333, 0.8666666666666667 ],
               "intensity" : 0.25,
               "name" : "headLight",
               "type" : "directional"
            },
            {
               "color" : [ 1, 0.9333333333333333, 0.8666666666666667 ],
               "intensity" : 0.324999988079071,
               "name" : "keyLight",
               "type" : "directional"
            }
         ]
      }
   },
   "extensionsUsed" : [ "GOOGLE_backgrounds", "GOOGLE_camera_settings", "KHR_lights_punctual" ],
   "extras" : {
      "GOOGLE_initial_camera_motion" : {
         "motionPath" : "FULL_ROTATION"
      },
      "GOOGLE_lighting_rig" : {
         "disableShadows" : false
      }
   },
   "materials" : [
      {
         "alphaMode" : "OPAQUE",
         "doubleSided" : false,
         "name" : "BlocksPaper",
         "pbrMetallicRoughness" : {
            "baseColorFactor" : [ 1, 1, 1, 1 ],
            "metallicFactor" : 0,
            "roughnessFactor" : 0.6
         }
      },
      {
         "alphaMode" : "BLEND",
         "doubleSided" : false,
         "name" : "BlocksGlass",
         "pbrMetallicRoughness" : {
            "baseColorFactor" : [ 0.2, 0.2, 1, 0.3 ],
            "metallicFactor" : 1,
            "roughnessFactor" : 0.4
         }
      },
      {
         "alphaMode" : "OPAQUE",
         "doubleSided" : true,
         "name" : "BlocksGem",
         "pbrMetallicRoughness" : {
            "baseColorFactor" : [ 1, 0.4, 1, 1 ],
            "metallicFactor" : 0,
            "roughnessFactor" : 0.1
         }
      }
   ],
   "meshes" : [
      {
         "name" : "mesh_m0-PolyGem25_-27586",
         "primitives" : [
            {
               "attributes" : {
                  "COLOR_0" : 0,
                  "NORMAL" : 4,
                  "POSITION" : 6
               },
               "indices" : 2,
               "material" : 2,
               "mode" : 4
            }
         ]
      },
      {
         "name" : "mesh_m1-PolyPaper16_-27584",
         "primitives" : [
            {
               "attributes" : {
                  "COLOR_0" : 1,
                  "NORMAL" : 5,
                  "POSITION" : 7
               },
               "indices" : 3,
               "material" : 0,
               "mode" : 4
            }
         ]
      }
   ],
   "nodes" : [
      {
         "mesh" : 1,
         "name" : "node_MeshObject1001172416-PolyPaper16"
      },
      {
         "mesh" : 0,
         "name" : "node_MeshObject1519892480-PolyGem25"
      },
      {
         "children" : [ 3 ]
      },
      {
         "children" : [ 4 ],
         "extras" : {
            "isTransformNode" : 1
         },
         "translation" : [ -0.4652110652470966, 0.6457499389928516, 0.4285498359054327 ]
      },
      {
         "children" : [ 1, 0 ],
         "translation" : [ 0.4652110652470966, -0.6457499389928516, -0.4285498359054327 ]
      },
      {
         "camera" : 0,
         "children" : [ 6 ],
         "rotation" : [
            -0.1188325486293728,
            0.1263756940583281,
            0.01525055939227297,
            0.9847209908272224
         ],
         "translation" : [ -0.2398612350225449, 0.9466881155967712, 1.421964287757874 ]
      },
      {
         "extensions" : {
            "KHR_lights_punctual" : {
               "light" : 0
            }
         },
         "extras" : {
            "isHeadLight" : 1
         },
         "name" : "headLightNode",
         "translation" : [ -0.451954595922879, 0.2259772979614395, 0.2259772979614395 ]
      },
      {
         "extensions" : {
            "KHR_lights_punctual" : {
               "light" : 1
            }
         },
         "extras" : {
            "isKeyLight" : 1
         },
         "name" : "keyLightNode",
         "rotation" : [ -0.7505326882858236, -0.3752663441429118, 0, 0.5439447166468927 ],
         "scale" : [ 0, 0, 0.4564741418821078 ],
         "translation" : [ -0.919420156296441, 1.613835130356533, -0.03131071384695511 ]
      }
   ],
   "scene" : 0,
   "scenes" : [
      {
         "extensions" : {
            "GOOGLE_backgrounds" : {
               "color" : [ 0.5647058823529412, 0.6431372549019608, 0.6823529411764706 ]
            },
            "GOOGLE_camera_settings" : {}
         },
         "extras" : {
            "GOOGLE_camera_index" : {
               "cameraIndex" : 0,
               "nodeIndex" : 5
            },
            "GOOGLE_geometry_data" : {
               "stats" : {
                  "centroid" : [ -0.4629460144143332, 0.700886846592317, 0.4251634280351527 ],
                  "radius" : 0.451954595922879,
                  "stdev" : 0.2718510525248543
               },
               "visualCenterPoint" : [ -0.4652110652470966, 0.6457499389928516, 0.4285498359054327 ]
            },
            "GOOGLE_hemi_light" : {
               "groundColor" : [ 0.5647058823529412, 0.6431372549019608, 0.6823529411764706 ]
            }
         },
         "name" : "defaultScene",
         "nodes" : [ 2, 5, 7 ]
      }
   ]
}
